<?xml version="1.0" encoding="UTF-8" standalone="no"?>
<!-- Created with Inkscape (http://www.inkscape.org/) -->

<svg
   xmlns:dc="http://purl.org/dc/elements/1.1/"
   xmlns:cc="http://creativecommons.org/ns#"
   xmlns:rdf="http://www.w3.org/1999/02/22-rdf-syntax-ns#"
   xmlns:svg="http://www.w3.org/2000/svg"
   xmlns="http://www.w3.org/2000/svg"
   xmlns:xlink="http://www.w3.org/1999/xlink"
   xmlns:sodipodi="http://sodipodi.sourceforge.net/DTD/sodipodi-0.dtd"
   xmlns:inkscape="http://www.inkscape.org/namespaces/inkscape"
   id="svg2"
   version="1.1"
   inkscape:version="0.91 r13725"
   width="1024"
   height="1024"
   viewBox="0 0 1024 1024"
   sodipodi:docname="Icon.svg"
   inkscape:export-filename="C:\Projects\WritePadSDK\DotNet\Images\Icon_1024x1024.png"
   inkscape:export-xdpi="90"
   inkscape:export-ydpi="90">
  <metadata
     id="metadata8">
    <rdf:RDF>
      <cc:Work
         rdf:about="">
        <dc:format>image/svg+xml</dc:format>
        <dc:type
           rdf:resource="http://purl.org/dc/dcmitype/StillImage" />
        <dc:title></dc:title>
      </cc:Work>
    </rdf:RDF>
  </metadata>
  <defs
     id="defs6">
    <linearGradient
       inkscape:collect="always"
       id="linearGradient10230">
      <stop
         style="stop-color:#2fa92b;stop-opacity:1"
         offset="0"
         id="stop10232" />
      <stop
         style="stop-color:#157913;stop-opacity:1"
         offset="1"
         id="stop10234" />
    </linearGradient>
    <linearGradient
       inkscape:collect="always"
       id="linearGradient10052">
      <stop
         style="stop-color:#32c82e;stop-opacity:1"
         offset="0"
         id="stop10054" />
      <stop
         style="stop-color:#188e16;stop-opacity:1"
         offset="1"
         id="stop10056" />
    </linearGradient>
    <linearGradient
       inkscape:collect="always"
       xlink:href="#linearGradient10052"
       id="linearGradient10058"
       x1="54.152542"
       y1="-6.8644071"
       x2="54.152542"
       y2="140.72034"
       gradientUnits="userSpaceOnUse"
       gradientTransform="matrix(9.0255155,0,0,6.3435142,453.13755,638.52681)" />
    <linearGradient
       inkscape:collect="always"
       xlink:href="#linearGradient10230"
       id="linearGradient10236"
       x1="-224.54625"
       y1="37.027199"
       x2="-224.54625"
       y2="198.41982"
       gradientUnits="userSpaceOnUse"
       gradientTransform="matrix(17.630638,0,0,4.2103824,4621.921,678.48612)" />
  </defs>
  <sodipodi:namedview
     pagecolor="#ffffff"
     bordercolor="#666666"
     borderopacity="1"
     objecttolerance="10"
     gridtolerance="10"
     guidetolerance="10"
     inkscape:pageopacity="0"
     inkscape:pageshadow="2"
     inkscape:window-width="1440"
     inkscape:window-height="897"
     id="namedview4"
     showgrid="false"
     inkscape:zoom="0.25"
     inkscape:cx="1331.0481"
     inkscape:cy="21.272704"
     inkscape:window-x="-8"
     inkscape:window-y="-8"
     inkscape:window-maximized="1"
     inkscape:current-layer="g10239"
     borderlayer="true" />
  <path
     sodipodi:nodetypes="ccccccccccccccccccccccccc"
     inkscape:connector-curvature="0"
     id="path10212"
     d="M 2076.4703,-157.45384 1893.3668,12.893579 c -18.8467,33.810453 -60.0883,106.331371 -56.9254,108.770121 3.2619,4.77859 105.7127,-28.507281 129.1572,-34.878997 l 195.0112,-150.384852 c 9.5661,-43.562331 -20.5947,-94.225661 -84.1395,-93.853691 z m 3.4724,8.21414 c 33.3452,-5.67691 86.3485,36.21106 72.4311,81.406011 l -42.2462,32.78429 c -44.1654,1.52437 -79.6776,-44.40279 -69.3299,-77.729001 z m -51.8904,48.10812 c 3.2043,36.798531 34.7378,68.594371 71.3923,74.162342 l -21.1351,16.387202 c -37.4023,-3.918813 -64.5589,-40.368833 -66.355,-75.561073 z m -23.249,21.758591 c 5.7289,46.75842 34.9312,66.231911 65.1178,75.0718476 L 1966.2487,75.295921 c -37.0339,-1.206211 -71.1751,-46.461032 -58.183,-64.926842 z M 1896.8302,26.683394 c 4.2921,24.205436 28.8482,49.385616 52.5986,56.473039 l -100.0281,28.339307 z"
     style="color:#000000;font-style:normal;font-variant:normal;font-weight:normal;font-stretch:normal;font-size:medium;line-height:normal;font-family:sans-serif;text-indent:0;text-align:start;text-decoration:none;text-decoration-line:none;text-decoration-style:solid;text-decoration-color:#000000;letter-spacing:normal;word-spacing:normal;text-transform:none;direction:ltr;block-progression:tb;writing-mode:lr-tb;baseline-shift:baseline;text-anchor:start;white-space:normal;clip-rule:nonzero;display:inline;overflow:visible;visibility:visible;opacity:1;isolation:auto;mix-blend-mode:normal;color-interpolation:sRGB;color-interpolation-filters:linearRGB;solid-color:#000000;solid-opacity:1;fill:#ff00ff;fill-opacity:1;fill-rule:evenodd;stroke:none;stroke-width:2;stroke-linecap:butt;stroke-linejoin:round;stroke-miterlimit:4;stroke-dasharray:none;stroke-dashoffset:0;stroke-opacity:1;color-rendering:auto;image-rendering:auto;shape-rendering:auto;text-rendering:auto;enable-background:accumulate" />
  <path
     inkscape:connector-curvature="0"
     id="path10214"
     d="m 1705.1007,-106.69523 c 44.1175,270.37737 111.3466,397.14705 314.8256,475.6006 -136.885,101.96883 -244.0553,152.8886 -350.9997,210.49511 -209.9165,-34.9403 -354.6327,-346.06646 -355.0171,-611.069315 z m 19.3,163.773346 -340.2776,113.868954 1.5719,4.71584 340.2873,-113.878642 z m 30.6238,121.981004 -313.4963,135.31337 1.9698,4.56058 313.4963,-135.31341 z m 68.2244,85.7874 -316.1648,152.73095 2.1542,4.47324 316.1744,-152.73095 z m 69.4954,67.07938 -300.0862,174.15592 2.4938,4.29862 300.0862,-174.16566 z"
     style="opacity:1;fill:#ff00ff;fill-opacity:1;stroke:none;stroke-width:2;stroke-linecap:butt;stroke-linejoin:round;stroke-miterlimit:4;stroke-dasharray:none;stroke-opacity:1"
     sodipodi:nodetypes="ccccccccccccccccccccccccc" />
  <g
     id="g10239"
     transform="matrix(1.1438124,0,0,1.1443828,-474.23259,-704.88758)">
    <rect
       y="594.98236"
       x="394.62469"
       height="936.20599"
       width="936.20599"
       id="rect10050"
       style="opacity:1;fill:url(#linearGradient10058);fill-opacity:1;stroke:none;stroke-width:60.5379982;stroke-linecap:round;stroke-linejoin:round;stroke-miterlimit:4;stroke-dasharray:none;stroke-opacity:1" />
    <path
       sodipodi:nodetypes="cccccc"
       inkscape:connector-curvature="0"
       id="rect10228"
       d="m 414.60697,931.74047 94.54691,-93.84211 356.0248,610.52694 -68.33288,62.3345 -382.23883,0 z"
       style="opacity:1;fill:url(#linearGradient10236);fill-opacity:1;stroke:none;stroke-width:0.73072028;stroke-linecap:butt;stroke-linejoin:round;stroke-miterlimit:4;stroke-dasharray:none;stroke-opacity:0.49803922" />
    <path
       inkscape:connector-curvature="0"
       id="path10218"
       d="m 901.31803,762.3296 -391.19114,75.02638 c 0.38437,265.00282 145.10042,576.12902 355.01695,611.06932 106.94438,-57.6065 214.11466,-108.5262 350.99966,-210.4951 -118.5321,-45.7013 -190.7899,-107.8679 -239.21693,-205.197 -32.20052,9.4592 -116.60458,36.4339 -119.60365,32.0405 -3.16285,-2.4387 38.07323,-74.96423 56.91989,-108.77469 l 24.38462,-22.68643 C 923.82864,883.67592 911.89804,827.16999 901.31803,762.3296 Z m 205.96347,31.02164 c -2.2165,-0.006 -4.3783,0.15947 -6.4624,0.51431 l -39.1434,36.46522 c -10.3476,33.32621 25.1653,79.2483 69.3306,77.72393 l 42.2485,-32.77794 c 13.0474,-42.37028 -32.7256,-81.83569 -65.9733,-81.92552 z m -58.356,48.62356 -16.0978,14.9917 c 1.796,35.19219 28.9589,71.64126 66.3613,75.56008 l 21.1339,-16.389 c -36.6544,-5.56797 -68.193,-37.36424 -71.3974,-74.16278 z m -23.2493,21.75496 -84.41915,78.31584 -12.31369,11.43055 c -0.59734,0.84905 -1.05309,1.77119 -1.45535,2.72666 -0.0848,0.20121 -0.17591,0.39645 -0.25247,0.60159 -0.34626,0.93211 -0.61791,1.90651 -0.79562,2.9207 -0.0403,0.21313 -0.057,0.43372 -0.0875,0.65013 -0.0931,0.66867 -0.11116,1.36877 -0.13617,2.06684 -0.0347,0.9038 -0.0139,1.82852 0.0681,2.77514 0.0445,0.55763 0.0834,1.10815 0.16494,1.67869 0.14812,1.02258 0.37808,2.06698 0.64041,3.12449 0.13062,0.52608 0.22121,1.03874 0.37864,1.57192 0.44867,1.51558 0.99974,3.05226 1.65919,4.60913 0.28874,0.68385 0.65292,1.37825 0.98015,2.06678 0.4263,0.89437 0.84981,1.77983 1.33905,2.67817 0.52023,0.95879 1.10007,1.91391 1.68838,2.87216 0.37558,0.6101 0.75241,1.21621 1.15466,1.82425 0.63903,0.96888 1.30516,1.92262 2.00866,2.88191 0.48937,0.66573 1.00418,1.32068 1.52343,1.97946 0.75116,0.95585 1.49899,1.90656 2.30934,2.84309 0.33681,0.38802 0.70156,0.76107 1.04796,1.14501 3.29476,3.66166 7.01193,7.10503 11.07161,10.20793 0.31194,0.238 0.61555,0.4844 0.93152,0.7181 1.30376,0.9662 2.64295,1.8718 4.00743,2.7557 0.3389,0.2191 0.67641,0.4362 1.01892,0.6501 1.39449,0.8719 2.80233,1.7011 4.25004,2.4744 0.35821,0.1913 0.72545,0.3587 1.08672,0.5434 1.48717,0.7611 2.97935,1.4911 4.5121,2.1347 6.11099,2.5661 12.53308,4.2119 19.06717,4.4248 l 103.67073,-79.59676 c -30.1867,-8.83987 -59.3903,-28.31646 -65.1192,-75.07488 z m -105.05826,62.37318 1.58166,4.70615 -340.28724,113.87861 -1.57195,-4.7158 340.27753,-113.86896 z m -2.91098,43.68455 -47.43005,84.81711 100.03192,-28.3435 c -1.48703,-0.4437 -2.97518,-0.9522 -4.46346,-1.5331 -1.48565,-0.5797 -2.96768,-1.224 -4.44416,-1.931 -2.95294,-1.4141 -5.86866,-3.0809 -8.72337,-4.9487 0,0 -0.0139,0 -0.0139,0 -1.42729,-0.9339 -2.83373,-1.9165 -4.221,-2.9499 -4.16209,-3.1 -8.1145,-6.6229 -11.73135,-10.4505 -1.20566,-1.2758 -2.37853,-2.5918 -3.50291,-3.9298 -5.6205,-6.68788 -10.16108,-14.09411 -12.98314,-21.63855 -10e-4,-0.003 10e-4,-0.006 0,-0.01 -0.5633,-1.50653 -1.06366,-3.01858 -1.48467,-4.53147 -8.4e-4,-0.003 8.3e-4,-0.006 0,-0.01 -0.4213,-1.51578 -0.76992,-3.02832 -1.03823,-4.54116 z m 33.53484,78.29651 1.96975,4.5605 -313.49626,135.3134 -1.96977,-4.5605 313.49628,-135.3134 z m 68.2244,85.7874 2.1638,4.4732 -316.17441,152.7309 -2.15415,-4.4732 316.16476,-152.7309 z m 69.4954,67.0793 2.4938,4.2889 -300.08623,174.1657 -2.49375,-4.2986 300.08618,-174.156 z"
       style="opacity:1;fill:#ffffff;fill-opacity:1;stroke:#008000;stroke-width:2.484061;stroke-linecap:butt;stroke-linejoin:round;stroke-miterlimit:4;stroke-dasharray:none;stroke-opacity:0.49803922" />
  </g>
  <path
     id="path10225"
     d="m 2721.0656,-130.24324 -391.1911,75.026399 c 0.3844,265.002861 145.1004,576.129011 355.0169,611.069311 106.9445,-57.60651 214.1148,-108.52624 350.9998,-210.49505 -118.5322,-45.70135 -190.7901,-107.86796 -239.2169,-205.197 -32.2007,9.45916 -116.6047,36.43387 -119.6038,32.04051 -3.1628,-2.4388 38.0732,-74.96429 56.92,-108.774744 l 24.3845,-22.686433 c -14.7988,-49.6366526 -26.7294,-106.142584 -37.3094,-170.982993 z m 205.9636,31.021658 c -2.2165,-0.006 -4.3784,0.15947 -6.4625,0.51429 l -39.1434,36.465231 c -10.3477,33.32622 25.1652,79.248303 69.3305,77.723932 l 42.2485,-32.777933 c 13.0475,-42.370279 -32.7255,-81.8357 -65.9731,-81.92552 z m -58.3561,48.623551 -16.0979,14.99171 c 1.796,35.19219044 28.9591,71.641262 66.3613,75.560068 l 21.1339,-16.388934 c -36.6544,-5.56803 -68.1929,-37.364314 -71.3973,-74.162844 z m -23.2492,21.75497 -84.4193,78.315829 -12.3136,11.430556 c -0.5973,0.849102 -1.053,1.771184 -1.4554,2.726654 -0.085,0.201209 -0.176,0.396457 -0.2524,0.60159 -0.3462,0.932119 -0.618,1.906517 -0.7957,2.920709 -0.04,0.213133 -0.057,0.433718 -0.088,0.650128 -0.093,0.66871 -0.1112,1.368769 -0.1362,2.066838 -0.035,0.903801 -0.014,1.828518 0.068,2.775143 0.044,0.557623 0.083,1.10814 0.1649,1.678679 0.148,1.022589 0.3781,2.066987 0.6404,3.124502 0.1307,0.526075 0.2211,1.038735 0.3785,1.571964 0.4487,1.515525 0.9998,3.052214 1.6594,4.609075 0.2886,0.683863 0.6528,1.378258 0.98,2.066839 0.4263,0.894312 0.8498,1.77978 1.339,2.678116 0.5204,0.958797 1.1001,1.913919 1.6886,2.87217 0.3755,0.610086 0.7522,1.216196 1.1546,1.824245 0.6389,0.968884 1.3052,1.922613 2.0085,2.881908 0.4894,0.665729 1.0044,1.320676 1.5235,1.979499 0.7511,0.955866 1.499,1.906567 2.3094,2.843057 0.3369,0.38801 0.7016,0.76107 1.048,1.145 3.2946,3.66166 7.0118,7.10506 11.0715,10.20796 0.3119,0.23797 0.6155,0.48439 0.9315,0.71804 1.3038,0.9662 2.6429,1.87179 4.0076,2.75577 0.3387,0.21909 0.6764,0.4362 1.0187,0.65012 1.3945,0.87181 2.8024,1.70109 4.2501,2.47433 0.3582,0.19127 0.7256,0.3587 1.0868,0.54341 1.4871,0.76107 2.9793,1.49108 4.512,2.13475 6.111,2.56609 12.5331,4.21188 19.0672,4.42471 l 103.6706,-79.596667 c -30.1866,-8.839928 -59.3904,-28.316504 -65.1192,-75.074924 z m -105.0584,62.373225 1.5816,4.706103 -340.2871,113.878693 -1.572,-4.71584 340.2775,-113.868956 z m -2.9109,43.684498 -47.4301,84.817118 100.032,-28.34353 c -1.4872,-0.44365 -2.9753,-0.95214 -4.4636,-1.53311 -1.4855,-0.57968 -2.9677,-1.22395 -4.4441,-1.93096 -2.9528,-1.41413 -5.8686,-3.08093 -8.7233,-4.94875 0,-0.001 -0.014,0.001 -0.014,0 -1.4273,-0.93386 -2.8337,-1.91645 -4.221,-2.94982 -4.1621,-3.10001 -8.1143,-6.62295 -11.7313,-10.4505 -1.2057,-1.27586 -2.3784,-2.59182 -3.5029,-3.92988 -5.6204,-6.68784 -10.1611,-14.094066 -12.9832,-21.638507 -9e-4,-0.0029 0,-0.005 0,-0.01 -0.5631,-1.506534 -1.0636,-3.018583 -1.4845,-4.531474 -8e-4,-0.0031 8e-4,-0.005 0,-0.01 -0.4214,-1.515824 -0.7701,-3.028369 -1.0382,-4.541212 z m 33.5347,78.296458 1.9699,4.56059 -313.4963,135.31341 -1.9698,-4.56059 313.4962,-135.31341 z m 68.2244,85.78745 2.1638,4.47325 -316.1743,152.7309 -2.1542,-4.47325 316.1647,-152.7309 z m 69.4954,67.07933 2.4939,4.28888 -300.0862,174.16567 -2.4938,-4.29858 300.0861,-174.15597 z"
     style="opacity:1;fill:#ff00ff;fill-opacity:1;stroke:none;stroke-width:2;stroke-linecap:butt;stroke-linejoin:round;stroke-miterlimit:4;stroke-dasharray:none;stroke-opacity:1"
     inkscape:connector-curvature="0" />
</svg>
